<svg width="16" height="16" viewBox="0 0 16 16" fill="currentColor"
    xmlns="http://www.w3.org/2000/svg">
    <path
        d="M9.72665 5.33337L7.99998 7.06004L6.27331 5.33337L5.33331 6.27337L7.05998 8.00004L5.33331 9.72671L6.27331 10.6667L7.99998 8.94004L9.72665 10.6667L10.6666 9.72671L8.93998 8.00004L10.6666 6.27337L9.72665 5.33337ZM7.99998 1.33337C4.31331 1.33337 1.33331 4.31337 1.33331 8.00004C1.33331 11.6867 4.31331 14.6667 7.99998 14.6667C11.6866 14.6667 14.6666 11.6867 14.6666 8.00004C14.6666 4.31337 11.6866 1.33337 7.99998 1.33337ZM7.99998 13.3334C5.05998 13.3334 2.66665 10.94 2.66665 8.00004C2.66665 5.06004 5.05998 2.66671 7.99998 2.66671C10.94 2.66671 13.3333 5.06004 13.3333 8.00004C13.3333 10.94 10.94 13.3334 7.99998 13.3334Z" />
</svg>