<svg width="16" height="16" viewBox="0 0 16 16" fill="currentColor"
    xmlns="http://www.w3.org/2000/svg">
    <g clip-path="url(#clip0_241_649)">
        <path
            d="M7.33331 4.66671H8.66665V6.00004H7.33331V4.66671ZM7.33331 7.33337H8.66665V11.3334H7.33331V7.33337ZM7.99998 1.33337C4.31998 1.33337 1.33331 4.32004 1.33331 8.00004C1.33331 11.68 4.31998 14.6667 7.99998 14.6667C11.68 14.6667 14.6666 11.68 14.6666 8.00004C14.6666 4.32004 11.68 1.33337 7.99998 1.33337ZM7.99998 13.3334C5.05998 13.3334 2.66665 10.94 2.66665 8.00004C2.66665 5.06004 5.05998 2.66671 7.99998 2.66671C10.94 2.66671 13.3333 5.06004 13.3333 8.00004C13.3333 10.94 10.94 13.3334 7.99998 13.3334Z" />
    </g>
    <defs>
        <clipPath id="clip0_241_649">
            <rect width="16" height="16" fill="white" />
        </clipPath>
    </defs>
</svg>