<svg xmlns="http://www.w3.org/2000/svg" width="18" height="18" fill="none"><path fill="currentColor" d="M1.75 8.251a.75.75 0 0 1 .75.75c0 3.584 2.916 6.5 6.5 6.5a6.5 6.5 0 0 0 5.33-2.802l-1.46.202a.76.76 0 0 1-.846-.641.75.75 0 0 1 .641-.846l2.944-.407h.001a.75.75 0 0 1 .845.641l.408 2.945a.751.751 0 0 1-1.486.206l-.117-.844A8 8 0 0 1 9 17.001c-4.411 0-8-3.589-8-8a.75.75 0 0 1 .75-.75M9.001 1c4.411 0 8 3.589 8 8a.75.75 0 0 1-1.5 0c0-3.584-2.916-6.5-6.5-6.5a6.49 6.49 0 0 0-5.33 2.8L5.13 5.1a.75.75 0 0 1 .205 1.487l-2.944.407a.75.75 0 0 1-.846-.64l-.408-2.945a.751.751 0 0 1 1.486-.206l.116.84A7.99 7.99 0 0 1 9 1z"/></svg>
