<svg width="252" height="46" viewBox="0 0 252 46" fill="none" xmlns="http://www.w3.org/2000/svg">
<g id="Logo" clip-path="url(#clip0_1660_1045)">
<g id="symbol">
<path id="Path-88" fill-rule="evenodd" clip-rule="evenodd" d="M31.9091 0.5L-2.28882e-05 22.8216L31.9091 45.5V24.8871L24.747 20.2719L20.7161 23L27.4242 27.3636V36.7089L7.87727 22.8216L31.9091 6.02936V0.5Z" fill="url(#paint0_linear_1660_1045)"/>
<path id="Path-89" fill-rule="evenodd" clip-rule="evenodd" d="M31.909 7.76897L10.5491 22.834L25.9017 33.7305V28.0936L18.1498 23.0606L31.909 13.3574V7.76897Z" fill="url(#paint1_linear_1660_1045)"/>
</g>
<path id="type" d="M83.0741 11.9546C89.1757 11.9546 94.122 16.8998 94.122 23C94.122 29.1002 89.1757 34.0455 83.0741 34.0455C76.9725 34.0455 72.0262 29.1002 72.0262 23C72.0262 16.8998 76.9725 11.9546 83.0741 11.9546ZM83.0741 15.5176C78.9407 15.5176 75.59 18.8676 75.59 23C75.59 27.1324 78.9407 30.4824 83.0741 30.4824C87.2074 30.4824 90.5581 27.1324 90.5581 23C90.5581 18.8676 87.2074 15.5176 83.0741 15.5176ZM111.941 11.9546C118.043 11.9546 122.989 16.8998 122.989 23C122.989 29.1002 118.043 34.0455 111.941 34.0455C105.84 34.0455 100.893 29.1002 100.893 23C100.893 16.8998 105.84 11.9546 111.941 11.9546ZM111.941 15.5176C107.808 15.5176 104.457 18.8676 104.457 23C104.457 27.1324 107.808 30.4824 111.941 30.4824C116.075 30.4824 119.425 27.1324 119.425 23C119.425 18.8676 116.075 15.5176 111.941 15.5176ZM193.197 11.9546C199.298 11.9546 204.245 16.8998 204.245 23C204.245 29.1002 199.298 34.0455 193.197 34.0455C187.095 34.0455 182.149 29.1002 182.149 23C182.149 16.8998 187.095 11.9546 193.197 11.9546ZM193.197 15.5176C189.063 15.5176 185.713 18.8676 185.713 23C185.713 27.1324 189.063 30.4824 193.197 30.4824C197.33 30.4824 200.681 27.1324 200.681 23C200.681 18.8676 197.33 15.5176 193.197 15.5176ZM166.108 11.9546C169.881 11.9546 173.331 13.8632 175.357 16.9621L172.375 18.9119C171.001 16.8093 168.666 15.5176 166.108 15.5176C161.976 15.5176 158.626 18.8676 158.626 23C158.626 27.1324 161.976 30.4824 166.108 30.4824C168.675 30.4824 171.017 29.1816 172.389 27.0671L175.377 29.007C173.355 32.1234 169.894 34.0455 166.108 34.0455C160.008 34.0455 155.064 29.1002 155.064 23C155.064 16.8998 160.008 11.9546 166.108 11.9546ZM137.244 12.3109C143.331 12.3109 148.292 17.0806 148.292 23C148.292 28.9194 143.331 33.6892 137.244 33.6892H129.76V30.1261H137.244C141.393 30.1261 144.728 26.9197 144.728 23C144.728 19.0803 141.393 15.8739 137.244 15.8739H129.76V12.3109H137.244ZM218.5 12.3109C224.586 12.3109 229.548 17.0806 229.548 23C229.548 28.9194 224.586 33.6892 218.5 33.6892H211.016V30.1261H218.5C222.649 30.1261 225.984 26.9197 225.984 23C225.984 19.0803 222.649 15.8739 218.5 15.8739H211.016V12.3109H218.5ZM54.207 11.9546C58.0293 11.9546 61.5188 13.9124 63.5328 17.0759L60.5263 18.9891C59.1599 16.8427 56.7981 15.5176 54.207 15.5176C50.0736 15.5176 46.7229 18.8676 46.7229 23C46.7229 27.1324 50.0736 30.4824 54.207 30.4824C57.3981 30.4824 60.1227 28.4843 61.1991 25.6723H53.7979V22.1094H65.2192L65.2549 23C65.2549 29.1002 60.3086 34.0455 54.207 34.0455C48.1054 34.0455 43.1591 29.1002 43.1591 23C43.1591 16.8998 48.1054 11.9546 54.207 11.9546ZM236.319 15.8739H252V12.3109H236.319V15.8739ZM236.319 33.6892H252V30.1261H236.319V33.6892ZM236.319 24.7815H252V21.2185H236.319V24.7815Z" fill="#F7F7FA"/>
</g>
<defs>
<linearGradient id="paint0_linear_1660_1045" x1="35.1" y1="11.6563" x2="12.3225" y2="38.3053" gradientUnits="userSpaceOnUse">
<stop stop-color="#105EFF"/>
<stop offset="0.413357" stop-color="#009BFF"/>
<stop offset="0.735652" stop-color="#105EFF"/>
<stop offset="1" stop-color="#090E43"/>
</linearGradient>
<linearGradient id="paint1_linear_1660_1045" x1="13.8695" y1="30.4997" x2="34.5169" y2="8.40304" gradientUnits="userSpaceOnUse">
<stop stop-color="#105EFF"/>
<stop offset="0.413357" stop-color="#009BFF"/>
<stop offset="0.735652" stop-color="#105EFF"/>
<stop offset="1" stop-color="#090E43"/>
</linearGradient>
<clipPath id="clip0_1660_1045">
<rect width="252" height="45" fill="white" transform="translate(-2.28882e-05 0.5)"/>
</clipPath>
</defs>
</svg>
